HIERARCHY
ROOT SimulationBone
{
	OFFSET 0.000000 0.000000 0.000000
	CHANNELS 6 Xposition Yposition Zposition Zrotation Yrotation Xrotation 
	JOINT Hips
	{
		OFFSET 0.000000 0.000000 0.000000
		CHANNELS 6 Xposition Yposition Zposition Zrotation Yrotation Xrotation 
		JOINT RightUpLeg
		{
			OFFSET 0.103458 1.857831 10.548505
			CHANNELS 3 Zrotation Yrotation Xrotation
			JOINT RightLeg
			{
				OFFSET 43.500000 -0.000031 0.000002
				CHANNELS 3 Zrotation Yrotation Xrotation
				JOINT RightFoot
				{
					OFFSET 42.372200 0.000023 0.000003
					CHANNELS 3 Zrotation Yrotation Xrotation
					JOINT RightToe
					{
						OFFSET 17.299997 -0.000001 -0.000010
						CHANNELS 3 Zrotation Yrotation Xrotation
						End Site
						{
							OFFSET 0.000000 0.000000 0.000000
						}
					}
				}
			}
		}
		JOINT LeftUpLeg
		{
			OFFSET 0.103457 1.857828 -10.548510
			CHANNELS 3 Zrotation Yrotation Xrotation
			JOINT LeftLeg
			{
				OFFSET 43.500046 -0.000015 0.000002
				CHANNELS 3 Zrotation Yrotation Xrotation
				JOINT LeftFoot
				{
					OFFSET 42.372261 -0.000008 0.000023
					CHANNELS 3 Zrotation Yrotation Xrotation
					JOINT LeftToe
					{
						OFFSET 17.299990 -0.000007 -0.000002
						CHANNELS 3 Zrotation Yrotation Xrotation
						End Site
						{
							OFFSET 0.000000 0.000000 0.000000
						}
					}
				}
			}
		}
		JOINT Spine
		{
			OFFSET 6.901967 -2.603726 -0.000001
			CHANNELS 3 Zrotation Yrotation Xrotation
			JOINT Spine1
			{
				OFFSET 12.588100 -0.000009 -0.000003
				CHANNELS 3 Zrotation Yrotation Xrotation
				JOINT Spine2
				{
					OFFSET 12.343202 0.000008 0.000008
					CHANNELS 3 Zrotation Yrotation Xrotation
					JOINT Neck
					{
						OFFSET 25.832897 -0.000015 -0.000004
						CHANNELS 3 Zrotation Yrotation Xrotation
						JOINT Head
						{
							OFFSET 11.766609 0.000013 -0.000006
							CHANNELS 3 Zrotation Yrotation Xrotation
							End Site
							{
								OFFSET 0.000000 0.000000 0.000000
							}
						}
					}
					JOINT RightShoulder
					{
						OFFSET 19.745911 -1.480373 6.000098
						CHANNELS 3 Zrotation Yrotation Xrotation
						JOINT RightArm
						{
							OFFSET 11.284123 -0.000007 -0.000032
							CHANNELS 3 Zrotation Yrotation Xrotation
							JOINT RightForeArm
							{
								OFFSET 33.000050 0.000005 0.000031
								CHANNELS 3 Zrotation Yrotation Xrotation
								JOINT RightHand
								{
									OFFSET 25.200008 0.000017 0.000013
									CHANNELS 3 Zrotation Yrotation Xrotation
									End Site
									{
										OFFSET 0.000000 0.000000 0.000000
									}
								}
							}
						}
					}
					JOINT LeftShoulder
					{
						OFFSET 19.746092 -1.480379 -6.000077
						CHANNELS 3 Zrotation Yrotation Xrotation
						JOINT LeftArm
						{
							OFFSET 11.284136 -0.000017 -0.000017
							CHANNELS 3 Zrotation Yrotation Xrotation
							JOINT LeftForeArm
							{
								OFFSET 33.000099 0.000019 0.000015
								CHANNELS 3 Zrotation Yrotation Xrotation
								JOINT LeftHand
								{
									OFFSET 25.199780 0.000140 0.000408
									CHANNELS 3 Zrotation Yrotation Xrotation
									End Site
									{
										OFFSET 0.000000 0.000000 0.000000
									}
								}
							}
						}
					}
				}
			}
		}
	}
}
MOTION
Frames: 11
Frame Time: 0.016667
32.138290 0.000000 140.680585 0.000000 251.515994 0.000000 0.326506 89.082231 -2.117050 94.616678 -4.790798 179.374191 -179.441533 -6.064014 174.665037 -23.291561 -5.919215 -1.560984 83.689218 -0.605440 -8.863912 21.454558 0.003100 0.000017 146.739245 7.222991 -171.154412 -66.327049 3.587503 2.437477 68.472745 -0.928677 2.713078 21.454552 -0.003093 0.000001 8.092347 -0.661953 -0.890332 6.182333 -1.275544 -1.814695 5.864333 -1.286601 -1.806970 14.646990 -2.923798 -4.586558 -10.387895 5.350242 -6.540718 -164.061360 -74.187777 -17.755289 -5.884459 51.073636 43.433852 -33.253659 -16.873150 1.444168 11.889450 3.016761 9.045774 -172.659241 74.609399 8.986286 -35.541926 -53.584733 -8.362553 -29.206574 14.589830 -1.187751 13.664297 7.623135 -15.153769 
32.222274 0.000000 141.452360 0.000000 249.584229 0.000000 0.251948 89.149498 -2.017661 94.405561 -4.475290 179.704281 -178.439635 -6.148202 173.719783 -22.731399 -5.802069 -2.026675 83.944506 -0.306112 -9.087363 21.454557 0.003103 0.000016 146.767623 7.787001 -171.402573 -62.127420 4.465561 3.816198 68.623579 -1.839773 3.038343 21.454551 -0.003090 0.000001 8.075671 -0.548293 -0.940652 6.147481 -1.045999 -1.909022 5.829523 -1.057630 -1.902674 14.562131 -2.564756 -4.583410 -10.636304 5.212088 -6.495153 -164.560498 -74.422290 -17.242047 -5.947621 50.763826 43.118157 -33.923216 -16.928810 1.462053 12.262281 2.540294 7.928035 -171.236380 74.399812 10.443009 -31.946419 -52.064339 -10.903082 -29.699915 14.619071 -1.199477 13.340449 6.335433 -13.434390 
32.237775 0.000000 142.225967 0.000000 247.699268 0.000000 0.138777 89.210322 -1.968602 94.129625 -4.271915 -179.922127 -177.503195 -6.054835 172.686387 -22.062355 -5.592848 -2.415523 84.091961 -0.072541 -9.320073 21.454557 0.003108 0.000017 146.915260 8.224088 -171.612572 -57.297473 4.952506 5.372898 68.499583 -2.911977 3.227087 21.454551 -0.003096 0.000001 8.056322 -0.447720 -1.008912 6.107481 -0.841744 -2.039975 5.789558 -0.854179 -2.034853 14.362896 -2.508002 -4.561546 -10.754194 5.210542 -6.478582 -164.644735 -74.446064 -17.155605 -6.213878 50.569614 42.567031 -34.257356 -17.173004 1.485176 12.095119 2.363447 6.737537 -169.691818 74.409862 12.025605 -29.061718 -50.603297 -13.014291 -29.874593 14.513868 -1.196425 12.733420 5.846691 -12.222200 
32.181396 0.000000 142.997899 0.000000 245.862988 0.000000 -0.000123 89.281227 -1.949071 93.838661 -4.121075 -179.533155 -176.540132 -5.862301 171.706188 -21.214716 -5.371424 -2.810464 84.082394 0.149685 -9.568075 21.454558 0.003112 0.000018 147.307973 8.539396 -171.718988 -51.812766 5.082826 6.850515 68.037009 -3.900354 3.470562 21.454553 -0.003101 0.000000 8.042427 -0.353233 -1.098175 6.078401 -0.648495 -2.213327 5.760524 -0.661990 -2.209372 14.106749 -2.626427 -4.492130 -10.741922 5.270775 -6.432964 -164.326018 -74.318185 -17.483103 -6.597850 50.423068 41.962393 -34.450230 -17.491266 1.510216 11.790965 2.358328 5.658129 -168.255986 74.589855 13.496493 -26.789620 -49.215603 -14.763333 -29.752050 14.307565 -1.180462 11.916331 5.613960 -11.259055 
32.052167 0.000000 143.764946 0.000000 244.076240 0.000000 -0.146003 89.373402 -1.933801 93.584756 -3.960898 -179.189443 -175.454138 -5.658539 170.889210 -20.134348 -5.217641 -3.296545 83.887724 0.416569 -9.839956 21.454558 0.003114 0.000019 148.047389 8.736852 -171.671478 -45.697418 4.954487 8.037012 67.275269 -4.594127 3.912999 21.454552 -0.003095 -0.000000 8.038804 -0.261238 -1.197779 6.069681 -0.459515 -2.407549 5.751868 -0.474187 -2.404745 13.888824 -2.706432 -4.366532 -10.636219 5.265915 -6.301659 -163.817312 -74.163887 -18.005612 -6.961783 50.290304 41.453169 -34.704889 -17.731112 1.531484 11.791847 2.363901 4.929340 -167.173849 74.822396 14.604205 -24.971762 -47.848396 -16.344120 -29.424599 14.077058 -1.159069 11.061302 5.064428 -10.179538 
31.850447 0.000000 144.524369 0.000000 242.337506 0.000000 -0.304023 89.461159 -1.922638 93.324985 -3.814585 -179.023097 -174.286661 -5.403703 170.146747 -18.877045 -5.121364 -3.893544 83.584535 0.745648 -10.149936 21.454558 0.003112 0.000019 148.961425 8.765392 -171.405127 -39.242246 4.508200 8.887971 66.599008 -5.084432 4.179505 21.454551 -0.003088 -0.000000 8.025602 -0.193263 -1.259191 6.041956 -0.320758 -2.526687 5.724192 -0.336147 -2.524727 13.835994 -2.512831 -4.247904 -10.546204 5.052358 -6.099018 -163.657301 -74.167231 -18.169533 -7.155749 50.307074 40.839753 -34.969362 -17.840295 1.544708 11.970695 2.377884 4.781240 -166.399322 74.905506 15.396907 -23.363600 -46.446983 -18.159332 -29.042298 13.903936 -1.141178 10.754252 4.651105 -9.054935 
31.576043 0.000000 145.273853 0.000000 240.643045 0.000000 -0.482441 89.515016 -1.924641 93.006049 -3.717972 -179.138772 -173.108519 -5.032356 169.380878 -17.525228 -5.050145 -4.601040 83.259572 1.141845 -10.509192 21.454558 0.003103 0.000018 149.810284 8.584551 -170.946960 -32.838794 3.738574 9.434326 66.313054 -5.525351 3.958842 21.454550 -0.003088 0.000000 7.986775 -0.166960 -1.242683 5.963678 -0.269906 -2.492256 5.645917 -0.285084 -2.490595 13.991461 -1.941668 -4.188305 -10.550735 4.572420 -5.861071 -164.228042 -74.423591 -17.582597 -7.117147 50.566400 39.939740 -35.162635 -17.804156 1.546829 12.097884 2.404574 5.242493 -165.791275 74.718837 16.020412 -21.844041 -44.996535 -20.370438 -28.724250 13.834285 -1.131150 11.442004 4.860219 -8.187892 
31.227539 0.000000 146.011920 0.000000 238.988420 0.000000 -0.674291 89.527184 -1.964044 92.641991 -3.685145 -179.466435 -171.959807 -4.514398 168.647192 -16.157543 -4.970427 -5.404239 82.936418 1.596042 -10.912883 21.454558 0.003094 0.000016 150.365739 8.263009 -170.691700 -27.037735 2.966579 9.952235 66.032970 -5.971073 3.729333 21.454551 -0.003092 0.000000 7.945638 -0.159265 -1.181488 5.881132 -0.258523 -2.369488 5.563341 -0.272958 -2.367886 14.030501 -1.433034 -4.131796 -10.530008 4.125928 -5.640486 -164.944491 -74.610961 -16.847391 -7.121068 50.817593 39.007288 -35.343523 -17.657798 1.541718 12.104997 2.352283 5.545700 -165.033721 74.564440 16.797196 -20.691425 -43.731224 -22.128031 -28.410009 13.766845 -1.120790 12.503342 5.395254 -8.315695 
30.803153 0.000000 146.737769 0.000000 237.369547 0.000000 -0.867819 89.491445 -2.057365 92.273814 -3.721441 -179.902906 -170.853698 -3.851760 168.017165 -14.854822 -4.862449 -6.273165 82.633060 2.089332 -11.352630 21.454556 0.003091 0.000014 150.464658 7.899496 -171.007901 -22.388902 2.458641 10.765130 65.376409 -6.455916 3.990643 21.454553 -0.003093 0.000000 7.929655 -0.145118 -1.122218 5.848798 -0.233556 -2.250285 5.530969 -0.247272 -2.248836 13.654179 -1.407348 -4.010853 -10.359488 4.000063 -5.469151 -165.085528 -74.428493 -16.704144 -7.400865 50.830408 38.342800 -35.577853 -17.474739 1.535722 11.968887 2.116336 5.035958 -163.927844 74.749932 17.928345 -20.082839 -42.891453 -22.721044 -28.022469 13.596861 -1.102778 13.213273 5.857293 -9.931133 
30.303299 0.000000 147.450455 0.000000 235.781974 0.000000 -1.034262 89.386162 -2.171223 91.979308 -3.815385 179.616129 -169.730064 -3.124998 167.472550 -13.707691 -4.757636 -7.135580 82.408035 2.577742 -11.821735 21.454555 0.003096 0.000014 150.169604 7.569796 -171.813559 -19.259211 2.132115 11.867303 64.692334 -7.050125 4.508105 21.454555 -0.003093 -0.000000 7.943647 -0.131898 -1.092004 5.876486 -0.208380 -2.189248 5.558637 -0.221730 -2.187955 13.033019 -1.663929 -3.793659 -10.105559 4.077812 -5.272822 -164.700708 -74.047791 -17.101116 -7.741917 50.821913 37.956463 -35.819676 -17.432502 1.538476 11.686672 1.630178 4.304420 -163.117989 75.201909 18.753207 -19.756938 -42.345983 -22.686484 -27.595720 13.353455 -1.079798 13.614970 6.050726 -12.051304 
29.729834 0.000000 148.149401 0.000000 234.219417 0.000000 -1.149854 89.193352 -2.272773 91.815101 -3.955631 179.131446 -168.547302 -2.410399 166.972773 -12.801842 -4.692037 -7.926901 82.318659 3.021279 -12.319233 21.454556 0.003106 0.000016 149.557244 7.319706 -172.805440 -17.923983 1.876040 13.073540 64.418846 -7.778079 4.892873 21.454553 -0.003093 -0.000001 7.983434 -0.133612 -1.101563 5.956083 -0.210556 -2.208502 5.638248 -0.224025 -2.207193 12.413634 -1.888854 -3.479061 -9.870224 4.167233 -4.980485 -164.094709 -73.721483 -17.724999 -7.881408 51.052022 37.763316 -36.018888 -17.657321 1.557528 11.258649 0.847091 4.024164 -163.300117 75.740465 18.561818 -19.449241 -41.869846 -22.721032 -27.199424 13.102068 -1.056731 13.925607 5.869885 -13.633194 
